<svg width="189" height="187" viewBox="0 0 189 187" fill="none" xmlns="http://www.w3.org/2000/svg">
<path opacity="0.83" d="M147.224 56.6328C133.573 42.7176 114.618 34.0219 93.5921 33.8212C72.5661 33.6204 53.442 41.9674 39.5373 55.6079C25.6327 69.2484 16.9265 88.214 16.7257 109.24C16.525 130.266 24.872 149.39 38.5124 163.295C52.1529 177.199 71.1186 185.906 92.1446 186.106C113.171 186.307 132.295 177.96 146.199 164.32C160.115 150.669 168.81 131.714 169.011 110.688C169.212 89.6616 160.865 70.548 147.224 56.6328Z" fill="url(#paint0_radial_2001_3077)" fill-opacity="0.5"/>
<path d="M7.91418 99.6779C7.70287 121.676 16.4302 141.688 30.7152 156.247C45.0002 170.807 64.8323 179.915 86.8303 180.126L87.5911 100.449L7.91418 99.6779Z" fill="#FFBB38"/>
<path d="M39.2521 99.9736C39.1253 113.329 44.4188 125.469 53.0933 134.302C61.7573 143.135 73.7918 148.661 87.147 148.788L87.6119 100.439L39.2521 99.9736Z" fill="#FFB11F"/>
<path d="M26.2455 37.9101C10.2383 53.6109 0.232448 75.4188 0 99.6039L87.6013 100.439L88.436 12.8374C64.2402 12.6049 42.2527 22.2093 26.2455 37.9101Z" fill="#4C78FF"/>
<path d="M53.7382 65.9202C44.9052 74.5842 39.3792 86.6186 39.2524 99.9738L87.6017 100.439L88.0665 52.0895C74.7113 51.9627 62.5712 57.2562 53.7382 65.9202Z" fill="#3464F3"/>
<path d="M159.301 30.0915C141.297 11.7386 116.298 0.264146 88.5526 0L87.5911 100.439L188.03 101.4C188.305 73.6544 177.306 48.4337 159.301 30.0915Z" fill="#16DBCC"/>
<path d="M122.11 66.5751C113.446 57.7421 101.411 52.2161 88.056 52.0894L87.5911 100.439L135.94 100.903C136.078 87.5483 130.784 75.4081 122.11 66.5751Z" fill="#1EC6B8"/>
<path d="M87.6015 100.438L86.9147 172.075C106.694 172.265 124.677 164.415 137.768 151.577C150.859 138.74 159.048 120.904 159.227 101.125L87.6015 100.438Z" fill="#FF82AC"/>
<path opacity="0.08" d="M87.5274 108.226L87.6013 100.439L7.92443 99.6779C7.9033 102.309 8.00896 104.908 8.23084 107.465L87.5274 108.226Z" fill="url(#paint1_linear_2001_3077)"/>
<path d="M87.6015 100.438L87.1366 148.788C100.492 148.914 112.632 143.621 121.465 134.957C130.298 126.293 135.824 114.259 135.951 100.903L87.6015 100.438Z" fill="#FF6195"/>
<path opacity="0.83" d="M119.658 83.639C113.445 77.3101 104.824 73.3479 95.2511 73.2528C85.6785 73.1577 76.9828 76.9615 70.6539 83.1636C64.325 89.3763 60.3628 97.998 60.2677 107.571C60.1726 117.143 63.9763 125.839 70.1784 132.168C76.3911 138.497 85.0129 142.459 94.5855 142.554C104.158 142.649 112.854 138.845 119.183 132.643C125.512 126.431 129.474 117.809 129.569 108.236C129.664 98.6636 125.871 89.968 119.658 83.639Z" fill="url(#paint2_radial_2001_3077)" fill-opacity="0.5"/>
<path d="M112.336 76.1689C106.123 69.84 97.5015 65.8778 87.9288 65.7827C78.3562 65.6877 69.6605 69.4913 63.3316 75.6935C57.0027 81.9062 53.0405 90.5279 52.9454 100.101C52.8503 109.673 56.654 118.369 62.8561 124.698C69.0688 131.027 77.6906 134.989 87.2632 135.084C96.8358 135.179 105.532 131.375 111.86 125.173C118.189 118.961 122.152 110.339 122.247 100.766C122.342 91.1936 118.549 82.4979 112.336 76.1689Z" fill="white"/>
<defs>
<radialGradient id="paint0_radial_2001_3077" cx="0" cy="0" r="1" gradientUnits="userSpaceOnUse" gradientTransform="translate(92.8643 109.964) rotate(0.544294) scale(76.1507)">
<stop/>
<stop offset="1" stop-opacity="0"/>
</radialGradient>
<linearGradient id="paint1_linear_2001_3077" x1="47.6704" y1="109.401" x2="47.7574" y2="100.238" gradientUnits="userSpaceOnUse">
<stop stop-color="white"/>
<stop offset="1"/>
</linearGradient>
<radialGradient id="paint2_radial_2001_3077" cx="0" cy="0" r="1" gradientUnits="userSpaceOnUse" gradientTransform="translate(94.926 107.903) rotate(0.544294) scale(34.6508 34.6508)">
<stop/>
<stop offset="1" stop-opacity="0"/>
</radialGradient>
</defs>
</svg>
