<svg width="25" height="25" viewBox="0 0 25 25" fill="none" xmlns="http://www.w3.org/2000/svg">
<mask id="path-1-inside-1_2001_3153" fill="white">
<path d="M22.0478 17.2021C21.2664 16.733 19.6411 15.7564 19.6411 13.216C19.6411 11.0719 21.076 9.98985 21.8467 9.40856L21.8628 9.39635C22.1722 9.16306 22.2459 8.72867 22.0312 8.40606C20.3093 5.82074 17.352 5.74607 16.7771 5.7568H16.7737C16.3793 5.75729 16.003 5.80268 15.6462 5.87443C15.778 5.76901 15.9059 5.65675 16.0289 5.53766C17.2608 4.34579 17.9377 2.58727 17.8855 0.711608C17.8743 0.315782 17.5502 0 17.1539 0C15.8214 0 14.3065 0.796045 13.2 2.07772C12.0853 3.36916 11.5645 4.91634 11.7719 6.32199C11.789 6.43864 11.8339 6.54504 11.8983 6.63631C11.7031 6.57091 11.4966 6.49477 11.2926 6.41961C10.5176 6.13408 9.63855 5.81049 8.81566 5.81049C8.79907 5.81049 7.12596 5.82269 5.45529 6.86033C3.994 7.76863 2.25159 9.65894 2.25159 13.5093C2.25159 15.5119 3.03397 18.3154 4.24487 20.6523C5.08143 22.2668 6.8175 24.9766 9.04701 24.9893H9.07092C10.6967 24.9893 12.0438 24.0292 12.9599 24.0292C14.5246 24.0292 15.0815 25 16.7737 25C18.2906 25 19.7607 23.8477 21.1434 21.5757C21.651 20.7411 22.0458 19.9158 22.2874 19.3701C22.7486 18.3305 22.7486 18.1919 22.7486 18.0904C22.7486 17.6233 22.3923 17.409 22.0478 17.2021ZM14.3084 3.03434C14.9092 2.33835 15.6662 1.82197 16.3832 1.59404C16.2461 2.73076 15.7658 3.75522 15.0108 4.48538C14.4817 4.99736 13.8467 5.33023 13.202 5.44493C13.2703 4.64058 13.6549 3.79134 14.3084 3.03434ZM19.8217 20.9295C18.7767 22.6104 17.6942 23.5358 16.7737 23.5358C15.5071 23.5358 14.9151 22.565 12.9599 22.565C11.6406 22.565 10.3819 23.5319 9.0553 23.525C8.02059 23.5192 6.67547 22.1604 5.54509 19.9787C4.43375 17.8346 3.7158 15.2952 3.7158 13.5093C3.7158 10.9811 4.54699 9.17184 6.18496 8.13127C7.46029 7.32156 8.7649 7.27617 8.82005 7.27471C9.96312 7.27764 11.5498 8.28941 12.7061 8.28941C13.7471 8.28941 15.1411 7.22102 16.779 7.22102H16.8059C17.2032 7.21321 19.0788 7.25762 20.3966 8.68767C19.4654 9.472 18.1769 10.8825 18.1769 13.216C18.1769 16.3855 20.1814 17.777 21.1282 18.3573C20.8925 18.9284 20.443 19.9304 19.8217 20.9295Z"/>
</mask>
<path d="M22.0478 17.2021C21.2664 16.733 19.6411 15.7564 19.6411 13.216C19.6411 11.0719 21.076 9.98985 21.8467 9.40856L21.8628 9.39635C22.1722 9.16306 22.2459 8.72867 22.0312 8.40606C20.3093 5.82074 17.352 5.74607 16.7771 5.7568H16.7737C16.3793 5.75729 16.003 5.80268 15.6462 5.87443C15.778 5.76901 15.9059 5.65675 16.0289 5.53766C17.2608 4.34579 17.9377 2.58727 17.8855 0.711608C17.8743 0.315782 17.5502 0 17.1539 0C15.8214 0 14.3065 0.796045 13.2 2.07772C12.0853 3.36916 11.5645 4.91634 11.7719 6.32199C11.789 6.43864 11.8339 6.54504 11.8983 6.63631C11.7031 6.57091 11.4966 6.49477 11.2926 6.41961C10.5176 6.13408 9.63855 5.81049 8.81566 5.81049C8.79907 5.81049 7.12596 5.82269 5.45529 6.86033C3.994 7.76863 2.25159 9.65894 2.25159 13.5093C2.25159 15.5119 3.03397 18.3154 4.24487 20.6523C5.08143 22.2668 6.8175 24.9766 9.04701 24.9893H9.07092C10.6967 24.9893 12.0438 24.0292 12.9599 24.0292C14.5246 24.0292 15.0815 25 16.7737 25C18.2906 25 19.7607 23.8477 21.1434 21.5757C21.651 20.7411 22.0458 19.9158 22.2874 19.3701C22.7486 18.3305 22.7486 18.1919 22.7486 18.0904C22.7486 17.6233 22.3923 17.409 22.0478 17.2021ZM14.3084 3.03434C14.9092 2.33835 15.6662 1.82197 16.3832 1.59404C16.2461 2.73076 15.7658 3.75522 15.0108 4.48538C14.4817 4.99736 13.8467 5.33023 13.202 5.44493C13.2703 4.64058 13.6549 3.79134 14.3084 3.03434ZM19.8217 20.9295C18.7767 22.6104 17.6942 23.5358 16.7737 23.5358C15.5071 23.5358 14.9151 22.565 12.9599 22.565C11.6406 22.565 10.3819 23.5319 9.0553 23.525C8.02059 23.5192 6.67547 22.1604 5.54509 19.9787C4.43375 17.8346 3.7158 15.2952 3.7158 13.5093C3.7158 10.9811 4.54699 9.17184 6.18496 8.13127C7.46029 7.32156 8.7649 7.27617 8.82005 7.27471C9.96312 7.27764 11.5498 8.28941 12.7061 8.28941C13.7471 8.28941 15.1411 7.22102 16.779 7.22102H16.8059C17.2032 7.21321 19.0788 7.25762 20.3966 8.68767C19.4654 9.472 18.1769 10.8825 18.1769 13.216C18.1769 16.3855 20.1814 17.777 21.1282 18.3573C20.8925 18.9284 20.443 19.9304 19.8217 20.9295Z" fill="#16DBCC" stroke="#16DBCC" stroke-width="4" mask="url(#path-1-inside-1_2001_3153)"/>
</svg>
